<svg version="1.2" xmlns="http://www.w3.org/2000/svg" viewBox="0 0 45 36" width="45" height="36">
	<title>6654902a42027eb4d0645876_Aloft-Logo-svg</title>
	<style>
		.s0 { fill: #000000 } 
	</style>
	<path id="Layer" class="s0" d="m36.4 22.1l4.1-6.5c0.3-0.4 0-1-0.6-1h-8.2l-0.1-0.1-9-14.2c-0.3-0.4-1-0.4-1.3 0l-3.7 5.9c-0.3 0.5-0.3 1 0 1.4l16.8 26.6c0.3 0.4 0.8 0.7 1.3 0.7h7.5c0.6 0 0.9-0.6 0.6-1z"/>
	<path id="Layer" class="s0" d="m0.8 34.9h7.4c0.5 0 1-0.3 1.3-0.7l11.8-18.6c0.3-0.4-0.1-1-0.7-1h-7.4c-0.6 0-1.1 0.3-1.3 0.7l-11.8 18.6c-0.3 0.4 0.1 1 0.7 1z"/>
	<path id="Layer" class="s0" d="m36.4 22.5l4.1-6.5c0.3-0.4 0-1-0.6-1h-8.2l-0.1-0.1-9-14.2c-0.3-0.4-1-0.4-1.3 0l-3.7 5.9c-0.3 0.5-0.3 1 0 1.4l16.8 26.6c0.3 0.4 0.8 0.7 1.3 0.7h7.5c0.6 0 0.9-0.6 0.6-1z"/>
	<path id="Layer" class="s0" d="m0.8 35.3h7.4c0.5 0 1-0.3 1.3-0.7l11.8-18.6c0.3-0.4-0.1-1-0.7-1h-7.4c-0.6 0-1.1 0.3-1.3 0.7l-11.8 18.6c-0.3 0.4 0.1 1 0.7 1z"/>
</svg>