<svg version="1.2" xmlns="http://www.w3.org/2000/svg" viewBox="0 0 512 136" width="512" height="136"><style>.a{fill:#97d700}.b{fill:#71c5e8}.c{fill:#ff9013}</style><path class="a" d="m17 12.6c-2.5 0.3-4.9 1.2-7.1 2.4-2.2 1.3-4.1 3-5.6 5-1.5 2-2.6 4.3-3.3 6.8-0.6 2.4-0.8 4.9-0.4 7.5l11.3 81.1 47.8-108.8z"/><path class="b" d="m132.3 80.2l-4.5-62.4c-0.2-2.5-0.9-5-2-7.2-1.1-2.3-2.7-4.3-4.6-5.9-1.9-1.7-4.1-2.9-6.5-3.7-2.4-0.8-4.9-1.1-7.4-1q-0.2 0.1-0.3 0.1-0.2 0-0.4 0-0.1 0-0.3 0-0.1 0.1-0.3 0.1l-18.4 2.5 40.5 90.9q1.1-1.4 2-3 0.8-1.6 1.4-3.3 0.5-1.7 0.7-3.5 0.2-1.8 0.1-3.6z"/><path class="c" d="m29.4 135.1q1.2 0.1 2.4 0.1 1.3 0 2.5-0.2 1.2-0.2 2.4-0.5 1.2-0.3 2.3-0.8l69.6-29.4-33.2-74.1z"/><path fill-rule="evenodd" d="m159.2 108.8h19l5.8-16.9h33.1l5.8 16.9h19.7l-30.7-82.4h-22zm41.3-65.3h0.5l11.2 33.8h-23.3zm130.3 65.3h18.6v-82.4h-18.6zm32.7 0h18.6v-29.2h33.6v-14.9h-33.6v-23.1h41.7v-15.2h-60.4zm98.5 0h18.7v-31.4l31.3-51h-19.9l-20.2 33.9h-0.5l-19.3-33.9h-21.1l31 51.1zm-171.1-82.4h-41.1v82.4h18.6v-26.1h22.5c7.4 0 14.6-3 19.9-8.3 5.2-5.2 8.2-12.4 8.2-19.8 0-7.5-3-14.7-8.2-19.9-5.3-5.3-12.5-8.3-19.9-8.3zm-2.1 41.8h-20.4v-27.3h20.4c3.6 0 7.1 1.4 9.7 4 2.5 2.6 4 6 4 9.7 0 3.6-1.5 7-4 9.6-2.6 2.6-6.1 4-9.7 4z"/></svg>