<svg version="1.2" xmlns="http://www.w3.org/2000/svg" viewBox="0 0 53 53" width="53" height="53">
	<title>centri-svg</title>
	<defs>
		<clipPath clipPathUnits="userSpaceOnUse" id="cp1">
			<path d="m2.06 6h215.88v40h-215.88z"/>
		</clipPath>
	</defs>
	<style>
		.s0 { fill: #000000 } 
	</style>
	<g id="Clip-Path: Mask" clip-path="url(#cp1)">
		<g id="Mask">
			<path id="Path 5" class="s0" d="m39.3 44.1c-8.3-2.5-15-6.5-19.4-13.1-1.4-2.1-2.8-4.8-2.6-8 0.3-6.5 6.4-8.5 12.8-8.2 3.1 0.1 6.1 1 8.6 1.9 2.6 1.1 5 2.4 7.1 3.8-3.7-1.8-8.5-3.9-14.2-3.5-5 0.4-9.5 2.9-8.7 8.9 0.3 2.5 1.4 4.4 2.7 6.2 3.8 5.3 9.3 8.8 16.1 10.9-3.8-1.7-7.7-4.3-10-8-1.1-1.9-2.2-5.2-0.7-7.6 2.8-4.8 11.8-3.4 16-0.7-4.7-2.1-12.7-2-13.1 3.7-0.2 2.4 1 4.3 2.1 5.8 1.1 1.5 2.4 2.7 3.9 3.8 3.1 2.2 6.9 3.8 11.6 3.6 0 0.2-0.4 0.3-0.6 0.5-2 0.9-4.5 1.6-7.2 1.8-3.1 0.2-6.3-0.2-9.2-0.7-5.5-1.1-10.5-3.2-14.7-5.7-6.3-3.6-12.1-8.3-15.7-14.9-1.1-2.2-2.2-5.1-2-8.1 0.3-4.4 3-7.1 6.5-8.6 3.4-1.6 8.2-1.8 12.6-1.3 8.9 1.1 15.7 4.6 21.7 8.5-5.2-2.8-11.9-5.8-19.5-5.8-7.5 0-14.5 3.5-12.8 12.1 0.6 3.4 2.4 6.1 4.3 8.5 2 2.5 4.2 4.5 6.6 6.3 5 3.7 10.7 6.5 17.8 7.9z"/>
		</g>
	</g>
</svg>