<svg version="1.2" xmlns="http://www.w3.org/2000/svg" viewBox="0 0 140 35" width="140" height="35"><style></style><path  d="m13.7 21.5l2.5 0.3q-0.4 2.6-2.1 4.1-1.7 1.4-4.1 1.4-3.1 0-5-2-1.9-2-1.9-5.8 0-2.4 0.8-4.2 0.8-1.9 2.5-2.8 1.6-0.9 3.6-0.9 2.4 0 4 1.3 1.6 1.2 2 3.5l-2.5 0.4q-0.3-1.6-1.2-2.3-0.9-0.8-2.2-0.8-1.9 0-3.1 1.4-1.2 1.4-1.2 4.4 0 3 1.1 4.4 1.2 1.3 3 1.3 1.5 0 2.6-0.9 1-0.9 1.2-2.8zm7.6 5.5h-2.6v-15h2.3v2.2q0.9-1.6 1.6-2.1 0.8-0.5 1.7-0.5 1.2 0 2.6 0.8l-0.9 2.4q-0.9-0.5-1.9-0.5-0.8 0-1.5 0.5-0.6 0.5-0.9 1.4-0.4 1.3-0.4 2.9zm6.5-7.5q0-4.2 2.3-6.2 1.9-1.7 4.7-1.7 3.1 0 5.1 2.1 1.9 2 1.9 5.6 0 2.9-0.8 4.6-0.9 1.6-2.6 2.5-1.6 1-3.6 1-3.1 0-5.1-2.1-1.9-2-1.9-5.8zm2.6 0q0 2.9 1.2 4.3 1.3 1.5 3.2 1.5 1.9 0 3.2-1.5 1.2-1.4 1.2-4.4 0-2.8-1.2-4.2-1.3-1.4-3.2-1.4-1.9 0-3.2 1.4-1.2 1.4-1.2 4.3zm17.3 7.5h-2.5v-15h2.2v2.1q1.7-2.5 4.8-2.5 1.4 0 2.5 0.5 1.2 0.5 1.7 1.3 0.6 0.8 0.8 1.9 0.2 0.7 0.2 2.5v9.2h-2.6v-9.1q0-1.6-0.3-2.3-0.3-0.8-1-1.3-0.8-0.4-1.8-0.4-1.6 0-2.8 1-1.2 1-1.2 3.9zm20.7-6.2h-7.8v-2.6h7.8zm5.7-11.5h-2.5v-3h2.5zm-5.8 23.6l0.5-2.1q0.8 0.2 1.2 0.2 0.8 0 1.2-0.6 0.4-0.5 0.4-2.5v-15.8h2.5v15.8q0 2.8-0.7 3.9-0.9 1.4-3.1 1.4-1 0-2-0.3zm9.1-13.3q0-4.2 2.3-6.2 2-1.7 4.7-1.7 3.1 0 5.1 2.1 2 2 2 5.6 0 2.9-0.9 4.5-0.9 1.7-2.5 2.6-1.7 0.9-3.7 0.9-3.1 0-5.1-2-1.9-2-1.9-5.8zm2.6 0q0 2.9 1.3 4.3 1.2 1.4 3.1 1.4 1.9 0 3.2-1.4 1.3-1.5 1.3-4.4 0-2.8-1.3-4.2-1.3-1.5-3.2-1.5-1.9 0-3.1 1.5-1.3 1.4-1.3 4.3zm17.1 5.6v1.9h-2.3v-20.8h2.5v7.4q1.6-2 4.1-2 1.4 0 2.7 0.6 1.2 0.5 2 1.6 0.8 1 1.3 2.4 0.4 1.4 0.4 3 0 3.9-1.9 6-1.9 2.1-4.6 2.1-2.6 0-4.2-2.2zm0-5.7q0 2.7 0.7 3.9 1.2 1.9 3.3 1.9 1.7 0 2.9-1.4 1.2-1.5 1.2-4.3 0-3-1.2-4.4-1.1-1.4-2.8-1.4-1.7 0-2.9 1.5-1.2 1.4-1.2 4.2zm17.8 7.6h-2.9v-2.9h2.9zm3.3-3.6q0-2.1 1.1-3 0.9-0.8 2.3-0.8 1.5 0 2.4 0.9 1 1 1 2.8 0 1.4-0.5 2.2-0.4 0.8-1.2 1.2-0.8 0.5-1.7 0.5-1.6 0-2.5-1-0.9-1-0.9-2.8zm1.2 0q0 1.4 0.6 2.1 0.6 0.6 1.6 0.6 0.9 0 1.5-0.7 0.6-0.7 0.6-2.1 0-1.3-0.6-2-0.6-0.7-1.5-0.7-1 0-1.6 0.7-0.6 0.7-0.6 2.1zm8.4 3.6h-1.3v-7.3h1.2v1.1q0.4-0.7 0.7-1 0.4-0.2 0.8-0.2 0.7 0 1.3 0.4l-0.4 1.1q-0.5-0.3-0.9-0.3-0.4 0-0.8 0.3-0.3 0.2-0.4 0.7-0.2 0.6-0.2 1.4zm3.4 0.6l1.1 0.2q0.1 0.5 0.5 0.8 0.4 0.3 1.2 0.3 0.9 0 1.3-0.3 0.5-0.4 0.7-1 0.1-0.4 0.1-1.6-0.9 1-2.1 1-1.5 0-2.3-1.1-0.8-1.1-0.8-2.6 0-1 0.4-1.9 0.4-0.9 1.1-1.4 0.7-0.4 1.7-0.4 1.2 0 2.1 1v-0.9h1.1v6.3q0 1.7-0.3 2.4-0.4 0.7-1.1 1.1-0.8 0.4-1.9 0.4-1.3 0-2.1-0.5-0.8-0.6-0.7-1.8zm1-4.4q0 1.5 0.5 2.1 0.6 0.7 1.5 0.7 0.8 0 1.4-0.7 0.6-0.6 0.6-2 0-1.4-0.6-2-0.6-0.7-1.5-0.7-0.8 0-1.4 0.7-0.5 0.6-0.5 1.9z"/><path  d="m33.6 15c-0.3 0-0.6 0.3-0.6 0.6v3.9q0 0.3 0.2 0.5l2.5 2.4c0.2 0.3 0.6 0.3 0.8 0 0.3-0.2 0.3-0.6 0-0.8l-2.3-2.3v-3.7c0-0.3-0.2-0.6-0.6-0.6z"/></svg>