<svg version="1.2" xmlns="http://www.w3.org/2000/svg" viewBox="0 0 125 221" width="36" height="64">
	<title>Path 3</title>
	<style>
		.s0 { fill: #000000 } 
	</style>
	<path id="Path 3" fill-rule="evenodd" class="s0" d="m-17.9 377.6c-6.7 0-12.6-2-17-5.9-4.9-4.5-8-11.6-8-19.9 0-5.1 1.8-12.3 7.1-18 4-4.1 10.1-7.2 17.9-7.2 7.1 0 13.2 2.2 17.6 6.7 4.5 4.5 7.2 11.1 7.2 18.9 0 14.9-10.4 25.4-24.8 25.4zm12.5-41.2c-2.7-3.8-6.8-6.8-12.9-6.8-4.9 0-8.6 1.7-11.3 4.5-3.7 3.8-5.5 10-5.5 16.5 0 13.1 6.3 24.2 17.9 24.2 11.9 0 16.5-10.2 16.5-22.5 0-3.4-1-10.5-4.7-15.9zm25.4 40.4c-3 0-8.1 0.1-8.1 0.1v-2c2.5 0 3.9-0.1 4.6-2.1 0.5-1.7 0.6-6.8 0.6-22.8 0-12.5 0.2-16.7-0.4-18.5-0.6-1.9-2.2-2.1-4.9-2.1v-1.9c0 0 5.1 0.1 8.7 0.1 3.7 0 8.3-0.1 8.3-0.1v1.9c-2.3 0-4.1 0.2-4.7 1.9-0.7 1.7-0.7 6.3-0.7 18.6 0 20.9-0.1 21.8 1.3 23.1 0.9 0.9 3.7 1.1 7.5 1.1 3.2 0 6.1-0.2 7.9-1.9 1.5-1.3 1.7-4.1 1.7-5.3h2.4c0 0-0.1 2.4-0.1 7.5 0 1 0.1 2.6 0.1 2.6-5.6 0-18.8-0.2-24.2-0.2zm37.8 0c-3.1 0-8.2 0.1-8.2 0.1v-2c2.5 0 3.9-0.1 4.6-2.1 0.6-1.7 0.6-6.8 0.6-22.8 0-12.5 0.2-16.7-0.4-18.5-0.6-1.9-2.1-2.1-4.9-2.1v-1.9c0 0 5.1 0.1 8.7 0.1 3.7 0 8.3-0.1 8.3-0.1v1.9c-2.3 0-4.1 0.2-4.7 1.9-0.6 1.7-0.7 6.3-0.7 18.6 0 20.9-0.1 21.8 1.3 23.1 1 0.9 3.8 1.1 7.5 1.1 3.3 0 6.1-0.2 7.9-1.9 1.5-1.3 1.7-4.1 1.7-5.3h2.4c0 0-0.1 2.4-0.1 7.5 0 1 0.1 2.6 0.1 2.6-5.6 0-18.8-0.2-24.1-0.2zm37.7 0c-3.1 0-8.2 0.1-8.2 0.1v-2c2.5 0 4-0.1 4.7-2.1 0.5-1.7 0.6-6.8 0.6-22.8 0-12.4 0.1-16.7-0.5-18.5-0.6-1.9-2.3-2.1-5-2.1v-1.9c0 0 5.2 0 8.9 0 3.1 0 14.1-0.1 20.1-0.2 0.8 0 2.1-0.1 2.1-0.1 0 0-0.1 2-0.1 3 0 4 0.1 6.1 0.1 6.1h-2.3c0-5.5-1.3-6-7-6-0.7 0-7.7 0.1-10.1 0.2v18.9c0 0 2.5 0.1 5.3 0.1 2.6 0 5.4-0.1 6.6-0.4 1.9-0.6 2-4.9 2-4.9h2.3c0 0-0.1 4.4-0.1 6.7 0 2.5 0.1 6.7 0.1 6.7h-2.3c0 0 0.2-3.1-0.9-4.3-0.8-0.9-3.7-1-6.7-1h-6.3v12.5c0 2.7-0.1 6.5 0.9 7.7 1.3 1.6 4.2 1.6 8.6 1.6 2.9 0 6.3-0.4 7.9-1.9 1.5-1.3 1.7-4.1 1.7-5.3h2.4c0 0-0.1 2.4-0.1 7.5 0 1 0.1 2.6 0.1 2.6-5.6 0-19.4-0.3-24.8-0.2zm73.6-17.1c-0.3 0.8-0.3 4.7-0.3 7.8 0 3.1 0.1 7.9 0.1 7.9-3.5 0.8-9.9 2.2-14.6 2.2-6.6 0-14-1.5-20.3-7.4-4.2-3.9-7.1-9.6-7.1-17.6 0-10.5 4.8-17.5 11.7-21.8 5-3 11.1-4.1 17.8-4.1 4.5 0 9.7 0.5 11.6 0.5 0.9 0 1.7 0 1.7 0 0 0-0.1 1.7-0.1 2.8 0 3.9 0.1 7.9 0.1 7.9h-2.2c0-6.5-5-8.4-11.9-8.4-6.6 0-11.6 1.6-15.4 5.4-3.6 3.7-5.6 9.2-5.6 16.3 0 15.1 8.5 23.6 20.7 23.6 5.4 0 7.3-0.9 7.3-0.9 0 0 0-2.8 0-7.3 0-2.6 0.1-5.2-0.4-6.7-0.6-1.9-2.4-2.1-5.1-2.1v-2c0 0 4.8 0.2 8.4 0.2 3.6 0 7.6-0.2 7.6-0.2v2c-2.3 0-3.4 0.1-4 1.9zm17.5 17.1c-3.1 0-8.1 0.1-8.1 0.1v-2c2.5 0 3.9-0.1 4.6-2.1 0.5-1.7 0.6-6.8 0.6-22.8 0-12.4 0.1-16.7-0.5-18.5-0.6-1.9-2.2-2.1-4.9-2.1v-1.9c0 0 5.2 0 8.8 0 3.2 0 14.1-0.1 20.1-0.2 0.9 0 2.1-0.1 2.1-0.1 0 0 0 2 0 3 0 4 0 6.1 0 6.1h-2.3c0-5.5-1.3-6-7-6-0.7 0-7.7 0.1-10 0.2v18.9c0 0 2.4 0.1 5.2 0.1 2.7 0 5.5-0.1 6.6-0.4 1.9-0.6 2-4.9 2-4.9h2.4c0 0-0.2 4.4-0.2 6.7 0 2.5 0.2 6.7 0.2 6.7h-2.4c0 0 0.2-3.1-0.9-4.3-0.7-0.9-3.7-1-6.7-1h-6.2v12.5c0 2.7-0.1 6.5 0.9 7.7 1.2 1.6 4.1 1.6 8.5 1.6 2.9 0 6.3-0.4 8-1.9 1.4-1.3 1.6-4.1 1.6-5.3h2.5c0 0-0.1 2.4-0.1 7.5 0 1 0.1 2.6 0.1 2.6-5.6 0-19.5-0.3-24.9-0.2zm-62.1-280l-2.1 5.1-55.6 24.6v95.2l-21.2-10.9v-68.9c0-5.5-4.4-12.1-9.9-14.8-5.5-2.7-9.9-0.5-9.9 5v68.5l-18.6-9.5v-87.3l-3.7-5.5 34.3-18.4v-36.2c-4.5-2.4-7.3-5.2-7.3-7.5 0-4.9 9.4-4.5 12.8-12.5 3-7.3 3.6-15.8 14.4-17.2q0-0.1 0-0.2c0-2.1 1.5-3.7 3.3-3.7 1.9 0 3.4 1.6 3.4 3.7q0 0.1-0.1 0.3c10.8 2.1 11.4 14.4 15.2 18.5 4.2 4.6 13.1 5.5 13.1 11.1 0 5.3-13.7 11.9-29 12.7v59.3l23-10v-20.7zm-53.3-3.4v-36.1l8.4-2.3v34.9zm35.4 40.8v68.1l-19.9 10.2v-68.1c0-5.5 4.5-12.1 10-14.9 5.3-2.6 9.7-0.5 9.9 4.7z"/>
</svg>