<svg version="1.2" xmlns="http://www.w3.org/2000/svg" viewBox="0 0 120 47" width="100" height="39"><style>.a{fill:#f90}.b{fill:#fff}</style><path class="a" d="m77.2 29.9c-7.1 5.6-17.6 8.9-26.7 9.2-12.7 0.5-24.4-3.8-33.4-11.4-0.7-0.6-0.1-1.4 0.7-1 9.6 5.1 21.3 8 33.3 7.6 8.1-0.3 16.9-2.3 25-6.1 1.2-0.6 2.3 0.7 1.1 1.7zm2.9-3.6c-1-1.2-6.2-0.4-8.5 0-0.7 0.1-0.9-0.5-0.2-1 4-3.1 10.9-2.5 11.7-1.5 0.9 1 0.1 7.8-3.7 11.3-0.6 0.5-1.2 0.2-0.9-0.4 0.8-2.3 2.6-7.3 1.6-8.4z"/><path fill-rule="evenodd" class="b" d="m11.8 23.4v-13.7h3.5v13.6q0 2-0.9 3-0.9 0.9-2.8 0.9-1.3 0-2.4-0.4v-2.3q0.7 0 1.3 0 0.7 0 1-0.2 0.3-0.3 0.3-0.9zm1.7-15.6q-0.9 0-1.4-0.5-0.6-0.5-0.6-1.3 0-0.9 0.6-1.4 0.5-0.5 1.4-0.5 0.9 0 1.5 0.5 0.5 0.5 0.5 1.4 0 0.8-0.5 1.3-0.6 0.5-1.5 0.5zm14 14.2h-2.8l-0.3-1.1q-0.7 0.7-1.7 1.1-1 0.4-1.9 0.4-1.8 0-2.8-1-1.1-1-1.1-2.7 0-1.2 0.6-2 0.6-0.9 1.6-1.4 1.1-0.5 2.6-0.5 1.1 0 2.5 0.3v-1.2q0-1.1-0.4-1.5-0.5-0.4-1.7-0.4-2 0-4.3 0.7v-2.3q0.8-0.5 2.2-0.7 1.3-0.3 2.7-0.3 2.5 0 3.6 1 1.2 1 1.2 3.1zm-5.7-2q0.6 0 1.2-0.2 0.7-0.3 1.2-0.7v-2.1q-1-0.2-1.9-0.2-2.1 0-2.1 1.7 0 0.7 0.5 1.1 0.4 0.4 1.1 0.4zm11.1 2.5v-0.3l-4.8-12.5h3.7l2.8 9.2 2.5-9.2h3.7l-5.2 14q-0.7 1.9-1.7 2.7-1 0.8-2.6 0.8-1.2 0-2.3-0.3v-2.4q0.8 0 1.4 0 1 0 1.5-0.4 0.6-0.5 1-1.6zm25.2-0.5h-3.5v-8q0-1-0.5-1.5-0.4-0.4-1.3-0.4-1.3 0-2.6 0.8v9.1h-3.5v-17.8h3.5v6.6q2-1.4 4.3-1.4 1.7 0 2.6 0.9 1 0.9 1 2.6zm6.2 0h-3.5v-12.2h3.5zm-1.8-14.2q-0.9 0-1.4-0.5-0.6-0.5-0.6-1.4 0-0.8 0.6-1.3 0.5-0.5 1.4-0.5 0.9 0 1.5 0.5 0.5 0.5 0.5 1.3 0 0.9-0.5 1.4-0.6 0.5-1.5 0.5zm9.6 11.6v2.3q-1 0.4-2.2 0.4-3.2 0-3.2-3.6v-14.3h3.5v14q0 0.7 0.2 1 0.2 0.2 0.8 0.2 0.3 0 0.9 0zm23.2 2.6h-3.5v-12.3h3.5zm-1.8-14.2q-0.9 0-1.4-0.5-0.6-0.5-0.6-1.3 0-0.9 0.6-1.4 0.5-0.5 1.4-0.5 0.9 0 1.5 0.5 0.5 0.5 0.5 1.4 0 0.8-0.5 1.3-0.6 0.5-1.5 0.5zm11.7 13.7v-1q-1.4 1.2-3.2 1.2-2.3 0-3.6-1.6-1.3-1.7-1.3-4.5 0-2.8 1.3-4.5 1.3-1.7 3.6-1.7 1 0 1.9 0.3 0.9 0.4 1.6 1.1l0.2-1.1h2.9v11.3q0 3-1.6 4.6-1.6 1.6-4.5 1.6-2.3 0-4.4-1v-2.3q2.3 0.7 4.1 0.7 1.6 0 2.2-0.7 0.8-0.8 0.8-2.4zm-2.2-2.4q0.6 0 1.1-0.1 0.6-0.2 1.1-0.5v-5.9q-1-0.6-2.3-0.6-2.3 0-2.3 3.5 0 1.9 0.6 2.8 0.6 0.8 1.8 0.8z"/><path class="b" d="m87.1 22l-3.3-1.8-2.2-6.8-2 6.8-3.5 1.8-4-12.3h3.7l2.1 8.9 2.2-8.9h3.1l2.3 8.9 1.9-8.9h3.6zm4.4-16"/></svg>