<svg version="1.2" xmlns="http://www.w3.org/2000/svg" viewBox="0 0 522 522" width="32" height="32"><style>.a{fill:#0a66c2}</style><path class="a" d="m482.7 0h-444.2c-5 0-10 0.9-14.6 2.8-4.7 1.8-8.9 4.6-12.5 8.1-3.5 3.5-6.4 7.6-8.4 12.2-1.9 4.6-3 9.6-3 14.6v446c0.1 5 1.1 9.9 3.1 14.5 1.9 4.6 4.8 8.7 8.4 12.2 3.5 3.5 7.7 6.3 12.4 8.1 4.6 1.9 9.6 2.8 14.6 2.8h444.2c5 0 9.9-0.9 14.6-2.7 4.6-1.9 8.9-4.6 12.5-8.1 3.6-3.5 6.4-7.7 8.4-12.3 2-4.6 3.1-9.5 3.1-14.5v-446.1c-0.1-5-1.1-10-3.1-14.6-2-4.6-4.8-8.7-8.4-12.2-3.6-3.5-7.9-6.2-12.5-8.1-4.7-1.8-9.6-2.8-14.6-2.7m-366.7 161.4c-18.2 0-34.5-10.9-41.4-27.6-7-16.8-3.2-36.1 9.7-48.9 12.8-12.8 32.1-16.7 48.8-9.7 16.8 6.9 27.7 23.3 27.7 41.4 0 5.9-1.2 11.7-3.4 17.1-2.3 5.5-5.6 10.4-9.7 14.6-4.2 4.1-9.1 7.5-14.6 9.7-5.4 2.3-11.2 3.4-17.1 3.4zm38.6 282.8h-77.3v-248.8h77.3zm289.6 0h-77.2v-121c0-28.8-0.6-66-40.2-66-40.2 0-46.4 31.5-46.4 63.9v123.1h-77.2v-248.7h74.1v34h1c3.7-6.3 8.2-12.1 13.5-17.2 5.2-5.1 11.1-9.5 17.5-13 6.4-3.6 13.3-6.2 20.4-7.9 7.1-1.7 14.5-2.4 21.8-2.1 78.3 0 92.7 51.5 92.7 118.5z"/></svg>