<svg version="1.2" xmlns="http://www.w3.org/2000/svg" viewBox="0 0 176 79" width="176" height="79"><style>.a{fill:#eb6d4a}</style><path class="a" d="m64.7 31.1c-0.6-0.1-1.3 0-2 0-2.7 0-2.7 0-2.7-2.8 0.1-3.3-0.4-6.5-1.7-9.5-1.2-2.9-3.1-5.6-5.5-7.8l-0.5-0.5c-2.4-2.2-5.4-3.8-8.5-4.7-3.2-0.9-6.5-1.1-9.7-0.6-3.3 0.5-6.4 1.7-9.1 3.5-2.8 1.9-5.1 4.3-6.8 7.1q-0.2 0.3-0.4 0.6c-2.1 3.9-3.1 8.4-2.8 12.8 0.1 0.7 0.6 1.8-0.9 1.9-1.3 0.1-2.3 0.8-2.1 2.2 0.3 1.5 1.4 1.7 2.6 1.7 2-0.1 4 0 5.9 0 1.3 0 2.2 0.5 2.2 1.8 0 1.2-0.7 1.9-1.9 1.9-1.5 0-2.4 0.7-2.3 2.1 0.1 1.5 1.3 1.7 2.6 1.7q5.2-0.1 10.5 0c1.3 0 2.2 0.5 2.2 2-0.1 1.4-1 1.8-2.2 1.8q-3.3 0-6.5 0c-1.4 0-2.7 0.1-2.7 1.9 0 1.8 1.3 1.8 2.7 1.8q10.9 0 21.8 0 4.8 0 9.5 0c1.3 0 2.4-0.2 2.4-1.7 0.1-1.7-1.1-2-2.4-2q-0.9 0-1.6 0h-9.8c-1.2 0-2.1-0.5-2.1-1.9 0-1.3 0.8-1.9 2.1-1.9 0.4-0.1 0.8 0 1.2 0 1.2 0 2.4-0.2 2.5-1.7 0.1-1.7-1-2.1-2.4-2.1-1.2 0-2-0.8-2-1.9 0-1.2 0.9-1.9 2.2-1.9q1.2 0 2.4 0 7.9 0 15.8 0c1.3 0 2.3-0.4 2.3-1.9 0-1.4-1-1.9-2.3-1.9z"/><path fill-rule="evenodd" class="a" d="m65.8 40.6c0-1.1-0.8-1.9-1.8-1.9 0 0 4.7 0 4.7 0q0 0-0.1 0c-1 0-1.8 0.8-1.8 1.9 0 1 0.8 1.8 1.8 1.8q0.1 0 0.1 0h-4.9q0.1 0 0.2 0c1 0 1.8-0.8 1.8-1.8zm-3.7 0c0-1 0.7-1.8 1.7-1.9v3.7c-1-0.1-1.7-0.9-1.7-1.8zm8.4 0c0 1-0.8 1.8-1.8 1.8v-3.7c1 0 1.8 0.8 1.8 1.9zm-6.5-1.9q-0.1 0-0.2 0zm-11 3.7q-0.1 0-0.2 0h5q0 0-0.1 0c-1 0-1.9-0.8-1.9-1.8 0-1.1 0.9-1.9 1.9-1.9q0.1 0 0.1 0c0 0-4.8 0-4.8 0 1 0 1.9 0.8 1.9 1.9 0 1-0.9 1.8-1.9 1.8zm-1.8-1.8c0-1 0.7-1.8 1.6-1.9v3.7c-0.9-0.1-1.6-0.9-1.6-1.8zm8.4 0c0 1-0.8 1.7-1.8 1.8v-3.7c1 0.1 1.8 0.8 1.8 1.9zm-6.8-1.9q0.1 0 0.2 0z"/><path fill-rule="evenodd" d="m8.5 73.8q-3.6 0-5.8-2-2.2-2.1-2.2-5.9v-4.7q0-3.7 2.2-5.8 2.2-2 5.8-2 3.7 0 5.9 2 2.2 2.1 2.2 5.8v4.7q0 3.8-2.2 5.9-2.2 2-5.9 2zm0-3.3q2.1 0 3.2-1.2 1.2-1.2 1.2-3.2v-5q0-2-1.2-3.2-1.1-1.2-3.2-1.2-2 0-3.2 1.2-1.1 1.2-1.1 3.2v5q0 2 1.1 3.2 1.2 1.2 3.2 1.2zm10.9 8.5v-19.5h3.4v1.7h0.5q0.5-0.8 1.5-1.4 1-0.7 2.9-0.7 1.7 0 3.1 0.8 1.4 0.9 2.3 2.5 0.8 1.6 0.8 3.8v0.5q0 2.2-0.8 3.8-0.9 1.6-2.3 2.5-1.4 0.8-3.1 0.8-1.3 0-2.1-0.3-0.9-0.3-1.4-0.8-0.5-0.4-0.8-0.9h-0.5v7.2zm7.2-8.3q1.7 0 2.7-1 1.1-1.1 1.1-3.1v-0.3q0-2-1.1-3-1-1.1-2.7-1.1-1.6 0-2.7 1.1-1.1 1-1.1 3v0.3q0 2 1.1 3.1 1.1 1 2.7 1zm16.3 3.1q-2 0-3.6-0.9-1.6-0.9-2.5-2.5-0.9-1.6-0.9-3.8v-0.3q0-2.2 0.9-3.8 0.9-1.6 2.4-2.5 1.6-0.9 3.7-0.9 2 0 3.5 0.9 1.5 0.9 2.4 2.6 0.8 1.5 0.8 3.7v1.2h-10.1q0.1 1.4 1.1 2.3 1 0.9 2.4 0.9 1.5 0 2.2-0.6 0.7-0.7 1.1-1.5l2.8 1.5q-0.3 0.8-1.1 1.6-0.7 0.9-2 1.5-1.2 0.6-3.1 0.6zm-3.4-9h6.5q-0.1-1.2-1-1.9-0.8-0.7-2.2-0.7-1.4 0-2.2 0.7-0.9 0.7-1.1 1.9zm12.7 8.6v-13.9h3.4v1.8h0.5q0.4-0.7 1.3-1.4 0.9-0.6 2.8-0.6 1.6 0 2.8 0.7 1.2 0.8 1.9 2.1 0.7 1.3 0.7 3v8.3h-3.6v-8q0-1.6-0.7-2.4-0.8-0.8-2.2-0.8-1.6 0-2.5 1.1-0.9 1.1-0.9 3v7.1zm18.1 0l-2.6-19.6h3.7l1.9 17h0.5l2.4-17h6.4l2.4 17h0.5l1.9-17h3.7l-2.6 19.6h-6.3l-2.6-17.4h-0.5l-2.5 17.4zm29.2 0.4q-2.1 0-3.7-0.9-1.5-0.9-2.4-2.5-0.9-1.6-0.9-3.8v-0.3q0-2.2 0.9-3.8 0.8-1.6 2.4-2.5 1.6-0.9 3.6-0.9 2.1 0 3.6 0.9 1.5 0.9 2.3 2.6 0.9 1.5 0.9 3.7v1.2h-10.1q0 1.4 1 2.3 1 0.9 2.5 0.9 1.5 0 2.2-0.6 0.7-0.7 1-1.5l2.9 1.5q-0.4 0.8-1.1 1.6-0.8 0.9-2 1.5-1.2 0.6-3.1 0.6zm-3.4-9h6.5q-0.1-1.2-1-1.9-0.8-0.7-2.2-0.7-1.4 0-2.3 0.7-0.8 0.7-1 1.9zm32.5 8.6q-1.4 0-2.2-0.9-0.9-0.8-0.9-2.2v-7.9h-3.4v-2.9h3.4v-4.3h3.6v4.3h3.8v2.9h-3.8v7.2q0 0.9 0.7 0.9h2.7v2.9zm6.9 0v-19.6h3.5v7.4h0.5q0.2-0.4 0.7-0.9 0.5-0.4 1.3-0.7 0.8-0.3 2-0.3 1.6 0 2.8 0.7 1.2 0.8 1.9 2.1 0.7 1.3 0.7 3v8.3h-3.5v-8q0-1.6-0.8-2.4-0.8-0.8-2.2-0.8-1.6 0-2.5 1.1-0.9 1.1-0.9 3v7.1zm22.9 0.4q-2 0-3.6-0.9-1.6-0.9-2.5-2.5-0.8-1.6-0.8-3.8v-0.3q0-2.2 0.8-3.8 0.9-1.6 2.4-2.5 1.6-0.9 3.7-0.9 2 0 3.5 0.9 1.5 0.9 2.4 2.6 0.8 1.5 0.8 3.7v1.2h-10.1q0.1 1.4 1.1 2.3 1 0.9 2.4 0.9 1.5 0 2.2-0.6 0.7-0.7 1.1-1.5l2.9 1.5q-0.4 0.8-1.2 1.6-0.7 0.9-1.9 1.5-1.3 0.6-3.2 0.6zm-3.3-9h6.4q-0.1-1.2-0.9-1.9-0.9-0.7-2.3-0.7-1.4 0-2.2 0.7-0.8 0.7-1 1.9zm12.6 8.6v-13.9h3.4v1.6h0.5q0.4-0.9 1.1-1.3 0.7-0.4 1.6-0.4h1.7v3.2h-1.7q-1.4 0-2.2 0.7-0.9 0.7-0.9 2.2v7.9zm-54.1 0.3q-1.5 0-2.6-0.5-1.2-0.5-1.9-1.5-0.7-1-0.7-2.4 0-1.4 0.7-2.4 0.7-1 1.9-1.5 1.2-0.5 2.8-0.5h3.8v-0.7q0-1-0.6-1.6-0.6-0.7-2-0.7-1.3 0-1.9 0.6-0.7 0.6-0.9 1.6l-3.2-1.1q0.3-1.1 1.1-2 0.7-0.8 1.9-1.4 1.3-0.5 3.1-0.5 2.7 0 4.3 1.3 1.6 1.4 1.6 4c0 0.5 0 5.8 0 6.3v2.6c-0.7 0-2.3 0-2.8 0 0-0.5 0-1.2 0-1.8h-0.5q-0.2 0.3-0.6 0.9-0.3 0.5-1.2 0.9-0.8 0.4-2.3 0.4zm0.6-2.8q1.5 0 2.4-0.8 1-0.9 1-2.2v-0.3h-3.6q-0.9 0-1.5 0.4-0.5 0.4-0.5 1.2 0 0.7 0.5 1.2 0.6 0.5 1.7 0.5z"/></svg>