<svg version="1.2" xmlns="http://www.w3.org/2000/svg" viewBox="0 0 150 150" width="32" height="32"><style>.a{fill:#fa0f00}.b{fill:#fff}</style><path class="a" d="m26.5 0h97c14.7 0 26.5 11.8 26.5 26.5v97c0 14.7-11.8 26.5-26.5 26.5h-97c-14.7 0-26.5-11.8-26.5-26.5v-97c0-14.7 11.8-26.5 26.5-26.5z"/><path fill-rule="evenodd" class="b" d="m121 94.3c-0.8 2.4-3.3 5.1-9.7 5.1-4.8 0-13.9-1.4-24.4-10.5-8.8 1.6-17.6 4.3-23.3 6.2-6.7 11.5-16.3 25.2-26.2 25.2-2.4 0-4.8-0.8-6.7-2.4-1.9-1.9-2.7-4.3-2.2-6.7 1.4-8.1 17.7-15.6 25.5-18.8 7.5-14.2 10.2-22.2 13.1-30.5-5.1-11.5-6.4-22.8-3.2-28.4 1.3-2.2 3.8-3.8 6.4-3.8 7.5 0 10.2 7.3 10.2 14-0.3 7.7-1.9 15-4.3 22.2 1.6 2.7 6.2 10.4 12.9 16.9 4.5-0.6 23.6-3.5 30.5 3.7 1.9 2.2 2.7 5.1 1.4 7.8zm-11.8-7.8c-5.7-1.1-13.4-0.3-16.9 0.3 4 3.2 8.6 5.6 13.7 7 4.2 1 6.7-0.9 6.9-2.7 0.6-2.7-1.6-4-3.7-4.6zm-39.1-30c1.8-5.3 2.9-11 3.2-16.6 0-2.4-0.6-5.3-3-5.3-0.8 0-1.6 0.5-2.1 1.3-1.4 2.4-2.2 9.9 1.9 20.6zm12.3 27.3c-2.2-2.1-6.2-6.9-8.6-10.9-1.1 3.2-4 10.7-6.1 15 6.4-2.2 14.7-3.8 14.7-4.1zm-49 28.4q-0.4 1.6 0.8 2.4c0.5 0.3 1 0.6 1.6 0.6 3.5 0 9.9-6.4 16-16.6-10.7 4.8-17.6 9.9-18.4 13.6z"/></svg>