<svg width="29" height="36" viewBox="0 0 29 36" fill="none" xmlns="http://www.w3.org/2000/svg">
<path fill-rule="evenodd" clip-rule="evenodd" d="M10.0278 32.0365C11.3528 33.326 12.8102 34.6472 14.4 36C19.23 31.89 22.8375 28.0725 25.2225 24.5475C27.6075 21.0225 28.8 17.76 28.8 14.76C28.8 10.26 27.3525 6.675 24.4575 4.005C21.5625 1.335 18.21 0 14.4 0C10.59 0 7.2375 1.335 4.3425 4.005C1.4475 6.675 0 10.26 0 14.76C0 17.76 1.1925 21.0225 3.5775 24.5475C4.12142 25.3514 4.72892 26.1705 5.4 27.0048V7.45568H9.95114V10.7028H10.2196C10.4582 10.2256 10.7949 9.71846 11.2295 9.18153C11.6642 8.63608 12.2523 8.17159 12.9938 7.78807C13.7352 7.39602 14.6812 7.2 15.8318 7.2C17.3489 7.2 18.7168 7.58778 19.9355 8.36335C21.1628 9.1304 22.1344 10.2682 22.8503 11.7767C23.5747 13.2767 23.9369 15.1176 23.9369 17.2994C23.9369 19.4557 23.5832 21.2881 22.8759 22.7966C22.1685 24.3051 21.2054 25.4557 19.9866 26.2483C18.7679 27.0409 17.3872 27.4372 15.8446 27.4372C14.7196 27.4372 13.7864 27.2497 13.0449 26.8747C12.3034 26.4997 11.7068 26.048 11.2551 25.5196C10.8119 24.9827 10.4668 24.4756 10.2196 23.9983H10.0278V32.0365ZM10.4753 20.6105C10.1173 19.656 9.93835 18.5437 9.93835 17.2739C9.93835 16.004 10.1131 14.9003 10.4625 13.9628C10.8205 13.0253 11.3446 12.2966 12.0349 11.7767C12.7253 11.2568 13.5648 10.9969 14.5534 10.9969C15.5847 10.9969 16.4455 11.2653 17.1358 11.8023C17.8261 12.3392 18.346 13.0807 18.6955 14.0267C19.0449 14.9727 19.2196 16.0551 19.2196 17.2739C19.2196 18.5011 19.0406 19.5963 18.6827 20.5594C18.3332 21.5139 17.8134 22.2682 17.123 22.8222C16.4327 23.3676 15.5761 23.6403 14.5534 23.6403C13.5733 23.6403 12.7381 23.3761 12.0477 22.8477C11.3659 22.3108 10.8418 21.5651 10.4753 20.6105Z" fill="black"/>
</svg>
