<svg version="1.2" xmlns="http://www.w3.org/2000/svg" viewBox="0 0 260 44" width="260" height="44"><style></style><path fill-rule="evenodd" d="m106.3 23.1q0 1.2-0.2 2.3h-18.6c1 2.6 3.7 4.3 6.9 4.3 2.3 0 4.3-0.9 5.7-2.3l5 2.9c-2.4 3-6.3 4.7-10.7 4.7-7.3 0-13.3-4.8-13.3-11.9 0-7.2 5.3-12 12.6-12 7.4 0 12.6 4.8 12.6 12zm-6.3-2.4c-0.8-2.6-3.1-4.3-6.3-4.3-3.2 0-5.4 1.7-6.3 4.3zm77.9 2.4q0 1.2-0.2 2.3h-18.6c1 2.6 3.7 4.3 6.9 4.3 2.3 0 4.3-0.9 5.7-2.3l5 2.9c-2.4 3-6.3 4.7-10.7 4.7-7.4 0-13.3-4.8-13.3-11.9 0-7.2 5.3-12 12.6-12 7.4 0 12.6 4.8 12.6 12zm-6.3-2.4c-0.8-2.6-3.1-4.3-6.3-4.3-3.2 0-5.4 1.7-6.3 4.3zm-38.5 2.4c0 3.9 2.6 6.6 6.7 6.6 2.7 0 4.8-1.2 5.8-3.3l5.1 3c-2.1 3.5-6 5.6-10.9 5.6-7.4 0-12.6-4.8-12.6-11.9 0-7.2 5.3-12 12.6-12 4.9 0 8.8 2.1 10.9 5.6l-5.1 3c-1-2-3.1-3.3-5.8-3.3-4 0-6.7 2.7-6.7 6.7zm54.9-19.3v30.6h-6v-30.6zm-163.3-3.3l24.5 42.5h-49.1zm61.4 3.3l-18.4 31.9-18.4-31.9h6.9l11.5 20 11.5-20zm39.1 8v6.4c-0.6-0.2-1.3-0.3-2.1-0.3-3.9 0-6.6 2.7-6.6 6.7v9.8h-6v-22.6h6v6.1c0-3.4 3.9-6.1 8.7-6.1zm106.9-7.5h14.3c1.4 0 2.7 0.3 4 0.8 1.3 0.5 2.4 1.3 3.4 2.3 1 1 1.8 2.1 2.3 3.4 0.5 1.3 0.8 2.6 0.8 4v14.3h-5.7v-14.3q0-0.1 0-0.1 0-0.1-0.1-0.2 0-0.1 0-0.2 0-0.1 0-0.2l-15 15q0.4 0 0.7 0h14.3v5.8h-14.3c-1.4 0-2.7-0.3-4-0.8-1.3-0.5-2.4-1.3-3.4-2.3-1-1-1.8-2.1-2.3-3.4-0.5-1.3-0.8-2.6-0.8-4v-14.4h5.7v14.4q0 0.1 0 0.1 0 0.1 0.1 0.2 0 0.1 0 0.2 0 0.1 0 0.1l14.9-14.9q-0.3-0.1-0.6-0.1h-14.3zm-29.1 3.9l13.8 17.5v-17.5h5.7v22.4c0 3.9-4.8 5.5-7.2 2.5l-19.5-24.9z"/></svg>