<svg version="1.2" xmlns="http://www.w3.org/2000/svg" viewBox="0 0 18 17" width="18" height="17"><style></style><path  d="m17.2 8.6c0.2 0 0.4 0.2 0.4 0.4v7.1 0.1q0 0.1-0.1 0.1 0 0.1 0 0.1-0.1 0-0.1 0.1-0.1 0-0.2 0 0 0 0 0 0 0 0 0 0 0 0 0 0 0 0 0l-8.6-1.1q-0.1-0.1-0.2-0.1 0 0-0.1-0.1 0 0 0-0.1-0.1 0-0.1-0.1v-6c0-0.2 0.2-0.4 0.4-0.4zm-10.1 0q0 0 0.1 0 0.1 0.1 0.1 0.1 0.1 0.1 0.1 0.1 0 0.1 0 0.2v6q0 0.1 0 0.1 0 0.1-0.1 0.1 0 0.1-0.1 0.1-0.1 0.1-0.1 0.1 0 0 0 0 0 0-0.1 0 0 0 0 0 0 0 0 0l-6.7-0.9q-0.1 0-0.1 0-0.1-0.1-0.1-0.1-0.1-0.1-0.1-0.1 0-0.1 0-0.2v-5.1c0-0.2 0.1-0.4 0.3-0.4zm0-7.5q0 0 0.1 0 0 0 0 0 0.1 0.1 0.1 0.1 0 0 0.1 0 0.1 0.1 0.1 0.3v6q0 0.1 0 0.1-0.1 0.1-0.1 0.2-0.1 0-0.1 0-0.1 0.1-0.2 0.1h-6.7q-0.1 0-0.2-0.1 0 0-0.1 0 0-0.1-0.1-0.2 0 0 0-0.1v-5.1q0-0.1 0-0.2 0.1 0 0.1-0.1 0.1 0 0.1-0.1 0.1 0 0.1 0zm10.2-1.1q0 0 0.1 0 0.1 0 0.2 0 0 0.1 0 0.2 0.1 0 0.1 0.1v7.2q0 0-0.1 0.1 0 0.1 0 0.1-0.1 0.1-0.1 0.1-0.1 0-0.2 0h-8.6q-0.1 0-0.2 0 0 0-0.1-0.1 0 0-0.1-0.1 0-0.1 0-0.1v-6.1q0 0 0-0.1 0.1-0.1 0.1-0.1 0-0.1 0.1-0.1 0.1 0 0.1 0z"/></svg>